<svg width="32" height="32" viewBox="0 0 32 32" fill="none" xmlns="http://www.w3.org/2000/svg">
  <g opacity="0.5">
    <path d="M16 2V4H26V19H28V4C27.9994 3.46975 27.7885 2.9614 27.4135 2.58646C27.0386 2.21152 26.5302 2.00061 26 2H16Z" fill="#091E42"/>
    <path d="M11 7V9H21V24H23V9C22.9994 8.46975 22.7885 7.9614 22.4135 7.58646C22.0386 7.21152 21.5302 7.00061 21 7H11Z" fill="#091E42"/>
    <path d="M6 12H16C16.5302 12.0006 17.0386 12.2115 17.4135 12.5865C17.7885 12.9614 17.9994 13.4698 18 14V28C17.9994 28.5302 17.7885 29.0386 17.4135 29.4135C17.0386 29.7885 16.5302 29.9994 16 30H6C5.46975 29.9994 4.9614 29.7885 4.58646 29.4135C4.21152 29.0386 4.00061 28.5302 4 28V14C4.00061 13.4698 4.21152 12.9614 4.58646 12.5865C4.9614 12.2115 5.46975 12.0006 6 12ZM16 14L6 13.9988V28H16V14Z" fill="#091E42"/>
  </g>
</svg>
