<svg width="32" height="32" viewBox="0 0 32 32" fill="none" xmlns="http://www.w3.org/2000/svg">
  <g opacity="0.5">
    <path d="M28.8281 3.17189C28.0664 2.44419 27.0535 2.03812 26 2.03812C24.9465 2.03812 23.9336 2.44419 23.1719 3.17189L4.05 22.292C3.39804 22.9404 2.88116 23.7117 2.52928 24.5613C2.17739 25.4108 1.9975 26.3217 2 27.2412V30H4.7559C5.67556 30.0027 6.58662 29.8229 7.4363 29.471C8.28599 29.1191 9.05741 28.6021 9.7059 27.95L28.8281 8.82859C29.1996 8.45723 29.4943 8.0163 29.6954 7.53101C29.8965 7.04571 30 6.52555 30 6.00024C30 5.47494 29.8965 4.95478 29.6954 4.46948C29.4943 3.98418 29.1996 3.54326 28.8281 3.17189ZM10.91 18.26L13.7386 21.0886L11.6172 23.21L8.7886 20.3818L10.91 18.26ZM8.2915 26.5356C7.8283 27.0014 7.2773 27.3706 6.6704 27.622C6.06351 27.8734 5.41278 28.0018 4.7559 28H4V27.2412C3.99824 26.5844 4.12676 25.9338 4.37813 25.327C4.62949 24.7202 4.9987 24.1693 5.4644 23.7061L7.3744 21.7961L10.203 24.6242L8.2915 26.5356ZM27.4141 7.41409L15.1528 19.6748L12.3242 16.8462L24.5859 4.58619C24.9668 4.22237 25.4733 4.01935 26 4.01935C26.5267 4.01935 27.0332 4.22237 27.4141 4.58619C27.5998 4.77187 27.7472 4.99233 27.8477 5.23496C27.9482 5.4776 28 5.73766 28 6.00029C28 6.26293 27.9482 6.52299 27.8477 6.76563C27.7472 7.00826 27.5998 7.22872 27.4141 7.41439V7.41409Z" fill="#091E42"/>
  </g>
</svg>
