<svg width="32" height="32" viewBox="0 0 32 32" fill="none" xmlns="http://www.w3.org/2000/svg">
  <g opacity="0.5">
   <path fill-rule="evenodd" clip-rule="evenodd" d="M20.9433 14.6064C21.4156 14.137 21.6831 13.4998 21.6873 12.8339V6.52121C21.6894 6.18879 21.6257 5.85924 21.5 5.55152C21.3742 5.2438 21.1888 4.96399 20.9545 4.7282C20.7202 4.4924 20.4416 4.30526 20.1346 4.17757C19.8277 4.04987 19.4986 3.98413 19.1662 3.98413C18.8337 3.98413 18.5046 4.04987 18.1977 4.17757C17.8908 4.30526 17.6121 4.4924 17.3778 4.7282C17.1435 4.96399 16.9581 5.2438 16.8323 5.55152C16.7066 5.85924 16.6429 6.18879 16.645 6.52121V12.8339C16.6492 13.4998 16.9167 14.137 17.389 14.6064C17.8614 15.0758 18.5002 15.3392 19.1662 15.3392C19.8321 15.3392 20.4709 15.0758 20.9433 14.6064ZM12.8339 9.04231C12.3352 9.04233 11.8478 8.89448 11.4332 8.61745C11.0185 8.34043 10.6954 7.94667 10.5045 7.48598C10.3137 7.02528 10.2638 6.51835 10.361 6.02927C10.4583 5.5402 10.6984 5.09095 11.051 4.73835C11.4036 4.38575 11.8529 4.14563 12.342 4.04835C12.831 3.95107 13.338 4.00101 13.7987 4.19184C14.2594 4.38268 14.6531 4.70584 14.9301 5.12047C15.2072 5.53509 15.355 6.02255 15.355 6.52121V9.04231H12.8339ZM8.61744 20.5668C8.89446 20.1522 9.04231 19.6647 9.04229 19.1661V16.645H6.52119C6.02254 16.645 5.53508 16.7928 5.12045 17.0698C4.70583 17.3469 4.38266 17.7406 4.19183 18.2013C4.00099 18.662 3.95106 19.169 4.04833 19.658C4.14561 20.1471 4.38573 20.5963 4.73834 20.9489C5.09094 21.3015 5.54018 21.5417 6.02926 21.6389C6.51833 21.7362 7.02527 21.6863 7.48596 21.4955C7.94666 21.3046 8.34041 20.9815 8.61744 20.5668ZM11.0567 17.3936C10.5844 17.863 10.3169 18.5002 10.3127 19.1661V25.4788C10.3106 25.8112 10.3743 26.1408 10.5 26.4485C10.6258 26.7562 10.8112 27.036 11.0455 27.2718C11.2798 27.5076 11.5584 27.6947 11.8654 27.8224C12.1723 27.9501 12.5014 28.0159 12.8339 28.0159C13.1663 28.0159 13.4954 27.9501 13.8023 27.8224C14.1093 27.6947 14.3879 27.5076 14.6222 27.2718C14.8565 27.036 15.0419 26.7562 15.1677 26.4485C15.2934 26.1408 15.3571 25.8112 15.355 25.4788V19.1661C15.3508 18.5002 15.0833 17.863 14.611 17.3936C14.1386 16.9242 13.4998 16.6608 12.8339 16.6608C12.1679 16.6608 11.5291 16.9242 11.0567 17.3936ZM14.6064 11.0567C14.137 10.5844 13.4998 10.3169 12.8339 10.3127H6.52119C6.18878 10.3106 5.85922 10.3743 5.55151 10.5C5.24379 10.6258 4.96398 10.8112 4.72818 11.0455C4.49238 11.2798 4.30525 11.5584 4.17755 11.8654C4.04986 12.1723 3.98412 12.5014 3.98412 12.8339C3.98412 13.1663 4.04986 13.4954 4.17755 13.8023C4.30525 14.1093 4.49238 14.3879 4.72818 14.6222C4.96398 14.8565 5.24379 15.0419 5.55151 15.1677C5.85922 15.2934 6.18878 15.3571 6.52119 15.355H12.8339C13.4998 15.3508 14.137 15.0833 14.6064 14.611C15.0758 14.1386 15.3392 13.4998 15.3392 12.8339C15.3392 12.1679 15.0758 11.5291 14.6064 11.0567ZM22.9577 12.8339C22.9577 12.3352 23.1055 11.8478 23.3826 11.4332C23.6596 11.0185 24.0533 10.6954 24.514 10.5045C24.9747 10.3137 25.4817 10.2638 25.9707 10.361C26.4598 10.4583 26.9091 10.6984 27.2617 11.051C27.6143 11.4036 27.8544 11.8529 27.9517 12.342C28.0489 12.831 27.999 13.338 27.8082 13.7987C27.6173 14.2594 27.2942 14.6531 26.8795 14.9301C26.4649 15.2072 25.9775 15.355 25.4788 15.355H22.9577V12.8339ZM19.1661 22.9577C19.6648 22.9577 20.1522 23.1055 20.5668 23.3826C20.9815 23.6596 21.3046 24.0533 21.4955 24.514C21.6863 24.9747 21.7362 25.4817 21.639 25.9707C21.5417 26.4598 21.3016 26.9091 20.949 27.2617C20.5964 27.6143 20.1471 27.8544 19.658 27.9517C19.169 28.0489 18.662 27.999 18.2013 27.8082C17.7406 27.6173 17.3469 27.2942 17.0699 26.8795C16.7928 26.4649 16.645 25.9775 16.645 25.4788V22.9577H19.1661ZM17.3936 20.9433C17.863 21.4156 18.5002 21.6831 19.1661 21.6873H25.4788C25.8112 21.6894 26.1408 21.6257 26.4485 21.5C26.7562 21.3742 27.036 21.1888 27.2718 20.9545C27.5076 20.7202 27.6947 20.4416 27.8224 20.1346C27.9501 19.8277 28.0159 19.4986 28.0159 19.1662C28.0159 18.8337 27.9501 18.5046 27.8224 18.1977C27.6947 17.8908 27.5076 17.6121 27.2718 17.3778C27.036 17.1435 26.7562 16.9581 26.4485 16.8323C26.1408 16.7066 25.8112 16.6429 25.4788 16.645H19.1661C18.5002 16.6492 17.863 16.9167 17.3936 17.389C16.9242 17.8614 16.6608 18.5002 16.6608 19.1662C16.6608 19.8321 16.9242 20.4709 17.3936 20.9433Z" fill="#091E42"/>
  </g>
</svg>
